<svg xmlns="http://www.w3.org/2000/svg" id="Capa_1" data-name="Capa 1" viewBox="0 0 859.24 183.76">
  <defs/>
  <path fill="#138bde" d="m0 25.88 3.66-5.05c23.39 1.27 45.32-5.56 65.93-15.82 2.86-1.42 5.36-5.2 8.95-5.01 2.23.12 11.03 6.27 14.06 7.78 8.98 4.48 22.04 9.01 33.02 10.98 8.65 1.55 17.47 2.23 26.24 2.26.87 1.66 1.05 3.47 1.19 5.32 4.4 60.57-.36 118.53-57.75 150.3-6.57 3.64-14.51 8.83-22.13 6.57-19.28-5.72-47.24-31.57-56.91-49.08-18.63-33.77-12.14-63.78-14.2-99.8-.11-1.86.22-3.75-2.06-4.45v-4Zm72.43 93.45 51.44-51.08c4.83-6.92-6.64-19.4-13.43-15.43C96.37 66.93 81.86 80.16 68.5 94.85c-1.45 0-16.8-18.58-20.75-20.22-8.18-3.4-17.23 7.09-12.8 14.79l29.75 30.5c1.46.85 4.15 1.19 5.83 1.04 1.77-.15 1.42-1.32 1.9-1.65Z"/>
  <path d="M679 134.38c-.11.68-3.6 9.45-3.94 9.86-.8.94-2.29.38-3.11 1.31-1.21 1.37-1.67 3.84-3.44 5.35-8.45 7.25-26.3 7.22-36.72 4.68-12.45-3.03-6.04-5.18-6.79-15.7 11.78 3.14 21.86 9.52 32.92.42 5.55-4.56 5.45-9.63 5.07-16.42-2.77.12-3 2.95-5.67 4.83-12.05 8.49-30.4 2.14-36.88-10.78-13.36-26.64 12.69-60.96 40.5-40.45.74.54 1.1 1.49 1.08 2.4 3.06-.27 1.59-7 1.98-7h15v61.5Zm-34.75-14.78c5.02 2.18 17.31-3.9 18.54-9.43 1.48-6.6 1.37-18.63-4.84-22.74-16.31-10.78-30.83 9.51-22.26 25.18 1.17 2.14 5.42 4.09 7.56 5.31.62.35.72 1.56.99 1.67ZM521.62 84.3c4.13 1.77 10 3.41 14.16 6.34 9.42 6.63 12.09 19.26 7.04 29.57-4.04 8.26-19.54 14.73-28.32 14.76-7.23.03-26.03-4.66-30.58-10.54-2.33-3 4.81-9.11 5.68-12.61 9.5 4.7 17.33 9.57 28.82 7.99 9.63-1.33 13.87-11.33 5.47-17.26-10.27-7.25-33.27-7.94-36.66-24.38-5.49-26.67 27.32-34.86 47.13-26.13 8.95 3.94 10.41 4.95 4.84 13.55-4.1 6.33-5.75.79-11.22-1.17-8.34-2.99-25.45-3.79-24.04 9.01.74 6.76 12.48 8.66 17.68 10.88ZM476 132.88h-16c-.3 0 .22-5.14 0-6-13.02 15.18-47.18 4.84-38.89-17.2.3-.81 1.41-.87 1.8-1.6.66-1.23.61-2.81 1.6-4.19 6.84-9.44 25.68-5.79 35.5-5.02 1-19.89-22.56-13.82-34-7.99v-14c0-.77 13.29-4.74 14.58-4.91 9.16-1.21 23.47-.51 29.95 6.88 1.6 1.83 5.47 9.5 5.47 11.53v42.5Zm-16.06-24.95c-1.46-1.5-21.34-2.46-23.44 1.95-7.32 15.42 20.64 15.49 23.28 6.29.35-1.22.46-7.92.15-8.24ZM820.74 72.12c12.08-2.05 28.73 3.59 34.66 14.87 9.76 18.54.36 44.6-21.91 46.89-45.84 4.7-45.75-56.16-12.75-61.75Zm17.92 17.1c-8.97-8.99-23.49-3.27-24.71 9.11-.38 3.88.16 15.89 2.72 18.63 3.27 3.51 12.87 4.86 17.38 3.47 9.85-3.03 11.63-24.18 4.61-31.21ZM609 105.88h-42c4.91 18 21.37 17.87 35.99 11 1.14 7.12 5.59 10.52-2.47 14.01-18.61 8.06-45.47.92-48.43-21.6-6.44-48.98 62.88-51.78 56.92-3.42Zm-15-9c.35-11.81-13.94-19.18-21.83-9.37-1.26 1.56-1.46 3.03-2.28 4.56-.43.8-1.91.84-1.92 1.45 0 .18.85 3.36 1.03 3.36h25ZM706 72.88v42.5c0 4.11 9.45 4.8 12.55 4.55 7.92-.63 10.82-4.94 11.49-12.51.94-10.63-.02-23.97-1.04-34.54h17c.58 1.4-1 3-1 3.5v56.5h-14c-.35 0-.86-6.13-1.01-7-8.79 10.27-27.61 12-35.98.49-.9-1.24-4.01-7.03-4.01-7.99v-45.5h16ZM208 49.88v68h35v15h-51v-83h16zM333.92 88.81c-.35.53-8.78 1.91-10.17 1.82-6.18-.39-8.3-6.9-17.99-5.54-10.35 1.45-13.45 12.17-12.75 21.28.8 10.45 10.67 16.98 20.82 13.84 3.96-1.22 5.64-5.85 8.71-6.35 1.78-.29 11.11 1.9 11.97 2.99.9 1.15-2.63 6.47-3.52 7.52-14.43 17.17-45.71 11.14-52.3-10.7-8.01-26.54 13.89-49.15 40.52-40.52 4.25 1.38 17.84 10.98 14.7 15.65ZM395 56.88v16h18v13h-18v30.5c0 6.02 14.19 4.59 17.99 2.5-.04 2.36.39 13.07-1.01 14-.14.09-1.77-.93-3.19-.76-7.55.93-11.37 3.17-19.51-.03-4.34-1.71-10.28-8.05-10.28-12.72v-33.5c-1.69-.28-9.62.39-10.01 0-.44-.44.34-10.49-.01-12.43.21-1.41 10.02-.07 10.02-.58v-16h16ZM793 71.88v15c-5.13-4.21-20 3.42-20 8.5v37.5h-16v-60h15v7.5c2.08 2.03 2.11-1.16 3.44-2.52 5.38-5.46 9.84-6.16 17.56-5.98ZM344 72.88h16v60h-16zM267 72.88v57.5c0 .61-.8 1.53 0 2.5h-15v-60h15ZM345.32 48.2c9.48-8.67 22.09 6.63 12.62 14.12s-20.82-6.63-12.62-14.12ZM256.74 46.05c12.77-2.54 15.71 14.48 6.32 17.38-14.16 4.37-16.58-15.34-6.32-17.38Z" class="cls-1"/>
</svg>
